<?xml version="1.0" encoding="utf-8"?>
<!-- Generator: Adobe Illustrator 26.0.1, SVG Export Plug-In . SVG Version: 6.00 Build 0)  -->
<svg version="1.1" id="Layer_1" xmlns="http://www.w3.org/2000/svg" xmlns:xlink="http://www.w3.org/1999/xlink" x="0px" y="0px"
	 viewBox="0 0 502 138" style="enable-background:new 0 0 502 138;" xml:space="preserve">
<style type="text/css">
	.st0{fill-rule:evenodd;clip-rule:evenodd;fill:#FF3C00;}
	.st1{fill:#FF3C00;}
</style>
<path class="st0" d="M215.7,113.9l-26-40.9h-11.8v40.9h-8.6V18h30.4c3.3,0,6.3,0.6,9.2,1.9c2.9,1.2,5.3,2.9,7.5,5
	c2.1,2.1,3.8,4.7,5,7.6s1.9,5.9,1.9,9.2v7.8c0,3.3-0.6,6.3-1.9,9.2c-1.2,2.9-2.9,5.3-5,7.5c-2.1,2.1-4.6,3.8-7.5,5.1
	c-2.9,1.2-5.9,1.8-9.2,1.8l26,40.9L215.7,113.9L215.7,113.9z M214.6,41.6c0-2.1-0.4-4.1-1.2-6c-0.8-1.9-1.9-3.5-3.3-4.9
	c-1.4-1.4-3-2.5-4.9-3.3c-1.8-0.8-3.8-1.2-6-1.2h-21.4v38.5h21.4c2.1,0,4.1-0.4,6-1.2c1.9-0.8,3.5-1.9,4.9-3.3
	c1.4-1.4,2.5-3.1,3.3-4.9c0.8-1.9,1.2-3.9,1.2-6V41.6z"/>
<path class="st0" d="M278.3,95.1c0,2.8-0.5,5.4-1.6,7.8c-1,2.5-2.5,4.6-4.3,6.4s-4,3.3-6.4,4.3c-2.5,1-5.1,1.5-7.8,1.5h-5.5
	c-2.8,0-5.4-0.5-7.8-1.5c-2.5-1.1-4.6-2.5-6.4-4.3c-1.8-1.8-3.3-4-4.3-6.4c-1-2.5-1.5-5.1-1.5-7.8V64.2c0-2.8,0.5-5.4,1.5-7.8
	c1.1-2.5,2.5-4.6,4.3-6.4c1.8-1.8,4-3.3,6.4-4.3c2.5-1.1,5.1-1.6,7.8-1.6h5.5c2.8,0,5.4,0.5,7.8,1.6c2.5,1,4.6,2.5,6.4,4.3
	s3.3,4,4.3,6.4c1.1,2.5,1.6,5.1,1.6,7.8V95.1z M270.1,63.7c0-1.6-0.3-3.2-0.9-4.6c-0.6-1.5-1.5-2.7-2.5-3.8
	c-1.1-1.1-2.3-1.9-3.8-2.5c-1.4-0.6-3-0.9-4.6-0.9h-5.5c-1.6,0-3.2,0.3-4.7,0.9c-1.4,0.6-2.7,1.5-3.7,2.5c-1.1,1.1-1.9,2.3-2.5,3.8
	c-0.6,1.4-0.9,3-0.9,4.6v31.8c0,1.7,0.3,3.2,0.9,4.7c0.6,1.4,1.5,2.7,2.5,3.7c1.1,1.1,2.3,1.9,3.7,2.5c1.5,0.6,3,0.9,4.7,0.9h5.5
	c1.6,0,3.2-0.3,4.6-0.9c1.5-0.6,2.7-1.5,3.8-2.5c1.1-1.1,1.9-2.3,2.5-3.7c0.6-1.5,0.9-3,0.9-4.7V63.7z"/>
<path class="st0" d="M332.1,102.9c1.1-2.5,1.6-5.1,1.6-7.8V64.2c0-2.8-0.5-5.4-1.6-7.8c-1-2.5-2.5-4.6-4.3-6.4
	c-1.8-1.8-4-3.3-6.4-4.3c-2.5-1.1-5.1-1.6-7.8-1.6h-2.1c-3.1,0-5.9,0.6-8.6,1.9s-4.9,3-6.8,5.2V18h-8.2v77.1c0,2.8,0.5,5.4,1.5,7.8
	c1.1,2.5,2.5,4.6,4.3,6.4s4,3.3,6.4,4.3c2.5,1,5.1,1.5,7.8,1.5h5.5c2.8,0,5.4-0.5,7.8-1.5c2.5-1.1,4.6-2.5,6.4-4.3
	C329.6,107.5,331,105.4,332.1,102.9z M324.5,59.1c0.6,1.4,0.9,3,0.9,4.6v31.8c0,1.7-0.3,3.2-0.9,4.7c-0.6,1.4-1.5,2.7-2.5,3.7
	c-1.1,1.1-2.3,1.9-3.8,2.5c-1.4,0.6-3,0.9-4.6,0.9h-5.5c-1.6,0-3.2-0.3-4.7-0.9c-1.4-0.6-2.7-1.5-3.7-2.5c-1.1-1.1-1.9-2.3-2.5-3.7
	c-0.6-1.5-0.9-3-0.9-4.7V63.7c0-1.6,0.3-3.2,0.9-4.6c0.6-1.5,1.5-2.7,2.5-3.8c1.1-1.1,2.3-1.9,3.7-2.5c1.5-0.6,3-0.9,4.7-0.9h5.5
	c1.6,0,3.2,0.3,4.6,0.9c1.5,0.6,2.7,1.5,3.8,2.5C323,56.4,323.9,57.7,324.5,59.1z"/>
<path class="st0" d="M389,95.1c0,2.8-0.5,5.4-1.6,7.8c-1,2.5-2.5,4.6-4.3,6.4s-4,3.3-6.4,4.3c-2.5,1-5.1,1.5-7.8,1.5h-5.5
	c-2.8,0-5.4-0.5-7.8-1.5c-2.5-1.1-4.6-2.5-6.4-4.3s-3.3-4-4.3-6.4c-1-2.5-1.5-5.1-1.5-7.8V64.2c0-2.8,0.5-5.4,1.5-7.8
	c1.1-2.5,2.5-4.6,4.3-6.4c1.8-1.8,4-3.3,6.4-4.3c2.5-1.1,5.1-1.6,7.8-1.6h5.5c2.8,0,5.4,0.5,7.8,1.6c2.5,1,4.6,2.5,6.4,4.3
	s3.3,4,4.3,6.4c1.1,2.5,1.6,5.1,1.6,7.8V95.1z M380.8,63.7c0-1.6-0.3-3.2-0.9-4.6c-0.6-1.5-1.5-2.7-2.5-3.8
	c-1.1-1.1-2.3-1.9-3.8-2.5c-1.4-0.6-3-0.9-4.6-0.9h-5.5c-1.6,0-3.2,0.3-4.7,0.9c-1.4,0.6-2.7,1.5-3.7,2.5c-1.1,1.1-1.9,2.3-2.5,3.8
	c-0.6,1.4-0.9,3-0.9,4.6v31.8c0,1.7,0.3,3.2,0.9,4.7c0.6,1.4,1.5,2.7,2.5,3.7c1.1,1.1,2.3,1.9,3.7,2.5c1.5,0.6,3,0.9,4.7,0.9h5.5
	c1.6,0,3.2-0.3,4.6-0.9c1.5-0.6,2.7-1.5,3.8-2.5c1.1-1.1,1.9-2.3,2.5-3.7c0.6-1.5,0.9-3,0.9-4.7V63.7z"/>
<path class="st1" d="M416.5,112.5c2.2,0.9,4.6,1.4,7.1,1.4h7.5v-7.8h-7.5c-1.4,0-2.7-0.2-3.9-0.7c-1.2-0.5-2.3-1.2-3.1-2.1
	c-0.9-0.9-1.6-1.9-2.1-3.1s-0.7-2.5-0.7-3.9v-43H431v-7.8h-17.4V27.6l-8.2,1.3v16.4h-12.3v7.8h12.3v42.6c0,2.5,0.5,4.8,1.4,7
	c1,2.2,2.3,4.1,3.9,5.8C412.4,110.3,414.3,111.5,416.5,112.5z"/>
<path class="st1" d="M464.3,74l19.7,39.9h9.3l-24.4-49.3l23-46.6h-9.3l-18.3,37.1L445.9,18h-9.3l23,46.6l-24.4,49.3h9.4L464.3,74z"
	/>
<path class="st0" d="M77,5c-16.4,0-30.7,6.4-41.9,14.2C24,27,15.8,36.3,11.5,42.7c-0.9,1.4-1.1,3.1-0.5,4.6l21.8,56.2l-13,22.5
	l8.7,5l14.2-24.6c0.8-1.3,0.9-2.9,0.3-4.3L21.3,46.2c4-5.3,10.7-12.6,19.5-18.8C50.9,20.4,63.2,15,77,15c13,0,22.4,3.3,29.3,8.5
	c6.9,5.1,11.7,12.3,14.7,20.6c5.6,15.2,5.4,33.6,3.1,47.2H80.5L73,71.1c5.2-3.7,8.6-9.7,8.6-16.6C81.6,43,72,34,60.6,34
	s-21,9-21,20.5S49.2,75,60.6,75c1,0,2.1-0.1,3.1-0.2L72.3,98c0.7,2,2.6,3.3,4.7,3.3h51.3c2.4,0,4.4-1.7,4.9-4
	c3.1-14.9,4.3-37.5-2.7-56.7c-3.6-9.7-9.3-18.7-18.2-25.2C103.4,8.8,91.8,5,77,5z M49.7,54.5c0-5.7,4.8-10.5,11-10.5s11,4.8,11,10.5
	S66.9,65,60.7,65S49.7,60.2,49.7,54.5z"/>
</svg>
