<?xml version="1.0" encoding="utf-8"?>
<!-- Generator: Adobe Illustrator 26.0.1, SVG Export Plug-In . SVG Version: 6.00 Build 0)  -->
<svg version="1.1" id="Layer_1" xmlns="http://www.w3.org/2000/svg" xmlns:xlink="http://www.w3.org/1999/xlink" x="0px" y="0px"
	 viewBox="0 0 366.9 100" style="enable-background:new 0 0 366.9 100;" xml:space="preserve">
<style type="text/css">
	.st0{fill:#FF3C00;}
	.st1{fill-rule:evenodd;clip-rule:evenodd;fill:#FF3C00;}
</style>
<path class="st0" d="M162.8,72.9c-3.2,0-6.1-0.5-8.8-1.6s-5-2.7-7.1-4.7c-2-2-3.6-4.3-4.7-7c-1.1-2.7-1.7-5.6-1.7-8.6
	c0-3.1,0.6-5.9,1.7-8.6c1.1-2.7,2.7-5,4.7-7s4.3-3.5,7-4.6s5.7-1.7,8.8-1.7c3.4,0,6.3,0.5,8.9,1.6c2.2,0.9,4.2,2.1,6,3.6
	c0.5,0.4,0.5,1.2,0,1.7l-4.5,4.5c-0.5,0.5-1.3,0.5-1.8,0c-0.9-0.8-2-1.4-3.1-1.9c-1.6-0.7-3.4-1-5.5-1c-1.8,0-3.5,0.3-5.1,1
	c-1.5,0.6-2.8,1.5-4,2.6c-1.1,1.2-1.9,2.6-2.6,4.2c-0.6,1.6-0.9,3.4-0.9,5.4s0.3,3.8,0.9,5.5c0.6,1.6,1.5,3,2.6,4.2s2.4,2.1,4,2.7
	c1.6,0.6,3.3,1,5.1,1c2.2,0,4-0.3,5.6-1c1.2-0.5,2.3-1.2,3.2-2c0.5-0.4,1.3-0.5,1.8,0l4.6,4.6c0.5,0.5,0.5,1.3-0.1,1.8
	c-1.8,1.5-3.8,2.7-6,3.6C169.3,72.4,166.3,72.9,162.8,72.9z"/>
<path class="st0" d="M129.4,72.3c-0.7,0-1.2-0.6-1.2-1.2v-40c0-0.7,0.6-1.2,1.2-1.2h6.9c0.7,0,1.2,0.6,1.2,1.2V71
	c0,0.7-0.6,1.2-1.2,1.2h-6.9V72.3z"/>
<path class="st0" d="M181.1,71c0,0.7,0.6,1.2,1.2,1.2h6.9h0.1h0.1h20.7c0.7,0,1.2-0.6,1.2-1.2v-5.7c0-0.7-0.6-1.2-1.2-1.2h-19.8
	v-9.5H208c0.7,0,1.2-0.6,1.2-1.2V48c0-0.7-0.6-1.2-1.2-1.2h-17.7V38H210c0.7,0,1.2-0.6,1.2-1.2v-5.6c0-0.7-0.6-1.2-1.2-1.2h-20.4
	h-0.1h-0.1h-6.9c-0.7,0-1.2,0.6-1.2,1.2V71H181.1z"/>
<path class="st1" d="M223.4,72.3c-0.1,0-0.1,0-0.2,0c-0.1,0-0.1,0-0.2,0h-6.8c-0.7,0-1.2-0.6-1.2-1.2v-40c0-0.7,0.6-1.2,1.2-1.2h6.8
	c0.1,0,0.1,0,0.2,0c0.1,0,0.1,0,0.2,0h9.7c2.7,0,5,0.5,6.9,1.5s3.4,2.3,4.4,4s1.5,3.5,1.5,5.6c0,2.6-0.8,4.8-2.5,6.6
	c-0.7,0.8-1.6,1.4-2.6,2c1.4,0.7,2.6,1.6,3.6,2.7c2,2.1,2.9,4.6,2.9,7.7c0,2.3-0.6,4.4-1.7,6.3c-1.1,1.8-2.8,3.3-4.9,4.4
	c-2.1,1.1-4.7,1.6-7.7,1.6H223.4z M224.3,64.9h7.9c1.8,0,3.3-0.5,4.3-1.6s1.6-2.4,1.6-4c0-1.1-0.2-2-0.7-2.9c-0.5-0.8-1.2-1.5-2-2
	s-1.9-0.7-3.1-0.7h-7.9v11.2H224.3z M231.4,46.6h-7.1v-9.4h7.1c1.6,0,2.8,0.4,3.8,1.2s1.4,1.9,1.4,3.5s-0.5,2.8-1.4,3.6
	C234.2,46.3,232.9,46.6,231.4,46.6z"/>
<path class="st0" d="M250.4,71c0,0.7,0.6,1.2,1.2,1.2h6.9h0.1h0.1h20.7c0.7,0,1.2-0.6,1.2-1.2v-5.7c0-0.7-0.6-1.2-1.2-1.2h-19.8
	v-9.5h17.7c0.7,0,1.2-0.6,1.2-1.2V48c0-0.7-0.6-1.2-1.2-1.2h-17.7V38h19.5c0.7,0,1.2-0.6,1.2-1.2v-5.6c0-0.7-0.6-1.2-1.2-1.2h-20.4
	h-0.1h-0.1h-6.9c-0.7,0-1.2,0.6-1.2,1.2L250.4,71L250.4,71z"/>
<path class="st1" d="M293.8,71V54.8h1.2c0,0.2,0.1,0.5,0.2,0.7L307,71.7c0.2,0.3,0.6,0.5,1,0.5h8c1,0,1.6-1.2,1-2l-12-15.8
	c1.4-0.3,2.8-0.7,4-1.3c2.2-1,3.8-2.5,5-4.3c1.2-1.9,1.8-4.1,1.8-6.5s-0.6-4.6-1.8-6.5c-1.2-1.9-2.9-3.3-5-4.4s-4.6-1.6-7.4-1.6
	h-8.8h-0.1h-0.1h-6.9c-0.7,0-1.2,0.6-1.2,1.2v40c0,0.7,0.6,1.2,1.2,1.2h6.9C293.2,72.3,293.8,71.7,293.8,71z M300.5,47.8h-6.7V37.2
	h6.8c1.9,0,3.3,0.5,4.3,1.5s1.5,2.3,1.5,3.8c0,1.6-0.5,2.9-1.6,3.9C303.8,47.4,302.4,47.8,300.5,47.8z"/>
<path class="st0" d="M330.7,71.2c2.7,1.1,5.6,1.7,8.7,1.7c4.2,0,7.9-0.9,11.1-2.6c3.2-1.8,5.8-4.4,7.6-7.8c1.8-3.5,2.8-7.8,2.8-12.8
	v-0.1c0-0.7-0.6-1.2-1.2-1.2h-19.8c-0.7,0-1.2,0.6-1.2,1.2V55c0,0.7,0.5,1.2,1.2,1.2l10.9,0.2c-0.2,0.9-0.6,1.7-0.9,2.4
	c-0.9,1.8-2.3,3.1-4,4.1c-1.7,0.9-3.8,1.4-6.3,1.4c-2.4,0-4.6-0.6-6.5-1.7c-1.9-1.1-3.4-2.7-4.4-4.7c-1.1-2-1.6-4.3-1.6-7
	s0.5-4.9,1.6-6.9s2.7-3.5,4.6-4.6c2-1.1,4.2-1.7,6.7-1.7c2.3,0,4.4,0.4,6.2,1.3c1.4,0.7,2.7,1.7,3.9,2.9c0.5,0.5,1.4,0.6,1.9,0.1
	l4.6-4.6c0.5-0.5,0.5-1.2,0-1.7c-1.8-1.9-4.1-3.5-6.7-4.6c-3-1.3-6.3-2-9.9-2c-3.2,0-6.1,0.6-8.9,1.7s-5.2,2.6-7.3,4.6
	c-2,2-3.6,4.3-4.8,6.9c-1.2,2.6-1.7,5.5-1.7,8.6s0.6,6,1.7,8.6c1.2,2.6,2.7,5,4.7,7C325.7,68.6,328.1,70.1,330.7,71.2z"/>
<path class="st0" d="M10.3,14.8C5,21.6,5,31.4,5,51.2c0,19.7,0,29.6,5.3,36.4c1.2,1.5,2.6,2.9,4.2,4.2c0.6,0.5,1.2,0.9,1.9,1.3
	l26.1-57.7c1.1-2.5,4-3.7,6.6-2.8l16.6,6.1c1.6,0.6,2.8,1.9,3.2,3.5L84,93.7c1.1-0.6,2.2-1.2,3.1-2c1.5-1.2,2.9-2.6,4.2-4.2
	c5.3-6.7,5.3-16.6,5.3-36.4c0-19.7,0-29.6-5.3-36.4c-1.2-1.5-2.6-2.9-4.2-4.2c-6.7-5.3-16.6-5.3-36.4-5.3c-19.7,0-29.6,0-36.4,5.3
	C12.9,11.9,11.5,13.3,10.3,14.8z"/>
</svg>
